<svg width="1921" height="1083" viewBox="0 0 1921 1083" fill="none" xmlns="http://www.w3.org/2000/svg">
<path d="M1052.5 692.5L1294 1.5H1919.5V1080.5H1487L1052.5 692.5Z" fill="#F8C000"/>
<path d="M735 811.5H755H761L888.5 940V946V957.5H882L735 811.5Z" fill="#F8C000"/>
<path d="M755 811.5H735L882 957.5H888.5V946M755 811.5L888.5 946M755 811.5H761L888.5 940V946M1294 1.5L1052.5 692.5L1487 1080.5H1919.5V1.5H1294Z" stroke="white" stroke-width="3"/>
<path d="M731 1037L769.5 1071.5L771 1079L755 1073L726 1047V1038L731 1037Z" fill="#F8C000"/>
<path d="M366.5 349L215 198.5L230 195L372.5 337.5L373 347L366.5 349Z" fill="#F8C000"/>
<path d="M264 194.5L328.5 257M360.5 940H370.5M325.5 907.5H336M290.5 873H297.5M769.5 1071.5L731 1037L726 1038V1047L755 1073L771 1079L769.5 1071.5ZM215 198.5L366.5 349L373 347L372.5 337.5L230 195L215 198.5Z" stroke="white" stroke-width="2"/>
<path d="M502.5 1081.5L379.5 957.5H397L522 1081.5H502.5Z" fill="#F8C000"/>
<path d="M548.5 1078.5L468.5 995M379.5 957.5L502.5 1081.5H522L397 957.5H379.5Z" stroke="white" stroke-width="3"/>
</svg>
